<svg width="33" height="57" viewBox="0 0 33 57" fill="none" xmlns="http://www.w3.org/2000/svg">
<path d="M0.500141 13.7722C0.73568 12.7397 0.915434 11.695 1.21915 10.6871C3.15304 4.36949 8.41544 0.319566 15.0601 0.0122894C17.1985 -0.0860419 18.8534 1.26599 19.0332 3.27558C19.1882 4.98404 17.7997 6.58189 15.8658 6.90146C15.0415 7.03666 14.1799 7.05509 13.3865 7.28248C9.95882 8.26576 7.7832 11.1665 7.59105 14.9644C7.54766 15.7941 7.58485 16.6237 7.58485 17.6132C8.1489 17.6377 8.64477 17.6807 9.13444 17.6807C14.7563 17.6869 20.372 17.6808 25.9939 17.6869C30.4692 17.6869 32.8369 20.0406 32.8369 24.4532C32.8369 33.1368 32.8369 41.8205 32.8307 50.5041C32.8307 54.4988 30.4382 56.957 26.403 56.9816C19.9382 57.0246 13.4795 57.0123 7.0146 56.9816C3.53113 56.9631 1.82659 55.5435 0.493943 51.6964C0.500143 39.0488 0.50014 26.4074 0.500141 13.7722ZM25.7212 24.6867C20.0187 24.6867 14.5022 24.7174 8.98568 24.6621C7.85758 24.6498 7.56006 24.994 7.56626 26.0817C7.60345 33.6039 7.60345 41.1199 7.56006 48.642C7.55386 49.6683 7.83898 50.0002 8.9051 49.9941C14.1489 49.951 19.3927 49.9818 24.6365 49.9818C24.9898 49.9818 25.3493 49.9019 25.7274 49.8589C25.7212 41.464 25.7212 33.1737 25.7212 24.6867Z" fill="#FAB437"/>
</svg>
